<?xml version="1.0" encoding="UTF-8"?>
<!DOCTYPE svg PUBLIC "-//W3C//DTD SVG 1.1//EN" "http://www.w3.org/Graphics/SVG/1.1/DTD/svg11.dtd">
<!-- Creator: CorelDRAW 2020 (64 Bit) -->
<svg xmlns="http://www.w3.org/2000/svg" xml:space="preserve" width="17.0552mm" height="17.0552mm" version="1.1" style="shape-rendering:geometricPrecision; text-rendering:geometricPrecision; image-rendering:optimizeQuality; fill-rule:evenodd; clip-rule:evenodd"
viewBox="0 0 159.08 159.08"
 xmlns:xlink="http://www.w3.org/1999/xlink"
 xmlns:xodm="http://www.corel.com/coreldraw/odm/2003">
 <defs>
  <style type="text/css">
   <![CDATA[
    .fil0 {fill:#FFB60D}
   ]]>
  </style>
 </defs>
 <g id="Camada_x0020_1">
  <metadata id="CorelCorpID_0Corel-Layer"/>
  <path class="fil0" d="M79.68 29.26c-1.04,13.03 -8.49,20.71 -21.28,21.43 12.79,0.72 20.25,8.41 21.28,21.43 1.04,-13.03 8.5,-20.71 21.28,-21.43 -12.79,-0.72 -20.25,-8.4 -21.28,-21.43zm-6 42.22c-0.28,3.55 -2.31,5.65 -5.8,5.84 3.48,0.19 5.52,2.29 5.8,5.84 0.28,-3.55 2.31,-5.64 5.8,-5.84 -3.48,-0.19 -5.52,-2.29 -5.8,-5.84zm25.68 -15.08c-1.57,19.76 -12.88,31.42 -32.28,32.51 19.4,1.09 30.71,12.75 32.28,32.51 1.58,-19.76 12.89,-31.42 32.29,-32.51 -19.4,-1.09 -30.71,-12.75 -32.29,-32.51zm-39.37 36.58c-0.84,10.55 -6.88,16.77 -17.23,17.35 10.35,0.58 16.39,6.81 17.23,17.35 0.84,-10.55 6.88,-16.77 17.23,-17.35 -10.35,-0.58 -16.39,-6.8 -17.23,-17.35zm-23.88 -31.48c4.8,0 8.68,3.89 8.68,8.68 0,4.8 -3.89,8.69 -8.68,8.69 -4.8,0 -8.69,-3.89 -8.69,-8.69 0,-4.8 3.89,-8.68 8.69,-8.68zm80.19 -10.42c3.68,0 6.66,2.98 6.66,6.66 0,3.68 -2.98,6.66 -6.66,6.66 -3.68,0 -6.66,-2.98 -6.66,-6.66 0,-3.68 2.98,-6.66 6.66,-6.66zm-6.08 69.48c2.56,0 4.63,2.07 4.63,4.63 0,2.56 -2.07,4.63 -4.63,4.63 -2.56,0 -4.63,-2.07 -4.63,-4.63 0,-2.56 2.07,-4.63 4.63,-4.63zm-30.69 -120.56c43.93,0 79.54,35.61 79.54,79.54 0,43.93 -35.61,79.54 -79.54,79.54 -43.93,0 -79.54,-35.61 -79.54,-79.54 0,-43.93 35.61,-79.54 79.54,-79.54z"/>
 </g>
</svg>
