<?xml version="1.0" encoding="UTF-8"?>
<!DOCTYPE svg PUBLIC "-//W3C//DTD SVG 1.1//EN" "http://www.w3.org/Graphics/SVG/1.1/DTD/svg11.dtd">
<!-- Creator: CorelDRAW 2020 (64 Bit) -->
<svg xmlns="http://www.w3.org/2000/svg" xml:space="preserve" width="17.0552mm" height="17.0552mm" version="1.1" style="shape-rendering:geometricPrecision; text-rendering:geometricPrecision; image-rendering:optimizeQuality; fill-rule:evenodd; clip-rule:evenodd"
viewBox="0 0 159.08 159.08"
 xmlns:xlink="http://www.w3.org/1999/xlink"
 xmlns:xodm="http://www.corel.com/coreldraw/odm/2003">
 <defs>
  <style type="text/css">
   <![CDATA[
       .fil0 {fill:#FFB60D}
   ]]>
  </style>
 </defs>
 <g id="Camada_x0020_1">
  <metadata id="CorelCorpID_0Corel-Layer"/>
  <path class="fil0" d="M79.54 0c43.93,0 79.54,35.61 79.54,79.54 0,43.93 -35.61,79.54 -79.54,79.54 -43.93,0 -79.54,-35.61 -79.54,-79.54 0,-43.93 35.61,-79.54 79.54,-79.54zm12.34 42.94c-11.21,0 -19.61,7.6 -22.7,10.87 -0.59,0.62 -0.59,1.6 0,2.22 3.09,3.27 11.49,10.87 22.7,10.87 11.21,0 19.61,-7.6 22.7,-10.87 0.59,-0.62 0.59,-1.59 0,-2.22 -3.09,-3.27 -11.49,-10.87 -22.7,-10.87zm-52.22 9.55c-3.3,0.88 -6.69,-1.08 -7.58,-4.38 -0.88,-3.3 1.08,-6.69 4.38,-7.57l16.97 -4.55c3.3,-0.88 6.69,1.08 7.57,4.38l18.65 69.61c3.51,0.91 6.5,3.1 8.45,6.04l38.22 -10.24c3.3,-0.88 6.69,1.08 7.58,4.38 0.88,3.3 -1.08,6.69 -4.38,7.57l-39.67 10.63c-1.85,5.88 -7.34,10.15 -13.83,10.15 -8.01,0 -14.5,-6.49 -14.5,-14.5 0,-4.81 2.35,-9.08 5.96,-11.71l-16.81 -62.75 -11 2.95zm36.32 67.31c2.27,0 4.11,1.84 4.11,4.11 0,2.27 -1.84,4.11 -4.11,4.11 -2.27,0 -4.11,-1.84 -4.11,-4.11 0,-2.27 1.84,-4.11 4.11,-4.11zm33.02 -48l-21.47 5.76 2.27 8.45 -6.62 1.78 -2.27 -8.45 -5 1.34 7.03 26.22c2.54,1.03 4.82,2.61 6.67,4.63l28.04 -7.51 -8.64 -32.21zm-13.26 -16.72c-2.26,0 -4.09,-1.83 -4.09,-4.09 -2.26,0 -4.09,1.83 -4.09,4.09 0,2.25 1.83,4.09 4.09,4.09 2.26,0 4.09,-1.83 4.09,-4.09zm-14.2 -6.46c-1.1,1.9 -1.72,4.12 -1.72,6.46 0,2.14 0.52,4.19 1.46,5.98 -3.78,-1.85 -6.77,-4.34 -8.65,-6.16 1.93,-1.86 5,-4.42 8.92,-6.29zm6.2 14.64c-2.9,-1.58 -4.69,-4.7 -4.69,-8.18 0,-3.97 2.36,-7.46 5.88,-8.72 0.96,-0.13 1.94,-0.2 2.96,-0.2 0.75,0 1.49,0.04 2.22,0.12 3.62,1.15 6.14,4.76 6.14,8.8 0,3.54 -1.92,6.77 -4.91,8.3 -1.12,0.18 -2.27,0.28 -3.45,0.28 -1.43,0 -2.82,-0.14 -4.14,-0.4zm14.09 -1.88c1.05,-1.87 1.64,-4.04 1.64,-6.29 0,-2.43 -0.66,-4.75 -1.91,-6.76 4.22,1.89 7.54,4.62 9.57,6.59 -1.99,1.92 -5.21,4.59 -9.31,6.47z"/>
 </g>
</svg>
