<?xml version="1.0" encoding="UTF-8"?>
<!DOCTYPE svg PUBLIC "-//W3C//DTD SVG 1.1//EN" "http://www.w3.org/Graphics/SVG/1.1/DTD/svg11.dtd">
<!-- Creator: CorelDRAW 2020 (64 Bit) -->
<svg xmlns="http://www.w3.org/2000/svg" xml:space="preserve" width="17.0552mm" height="17.0552mm" version="1.1" style="shape-rendering:geometricPrecision; text-rendering:geometricPrecision; image-rendering:optimizeQuality; fill-rule:evenodd; clip-rule:evenodd"
viewBox="0 0 159.08 159.08"
 xmlns:xlink="http://www.w3.org/1999/xlink"
 xmlns:xodm="http://www.corel.com/coreldraw/odm/2003">
 <defs>
  <style type="text/css">
   <![CDATA[
       .fil0 {fill:#FFB60D}
   ]]>
  </style>
 </defs>
 <g id="Camada_x0020_1">
  <metadata id="CorelCorpID_0Corel-Layer"/>
  <path class="fil0" d="M79.54 0c43.93,0 79.54,35.61 79.54,79.54 0,43.93 -35.61,79.54 -79.54,79.54 -43.93,0 -79.54,-35.61 -79.54,-79.54 0,-43.93 35.61,-79.54 79.54,-79.54zm4.13 112.36l24.66 -13.98 0 -10.49 -11.06 6.72 -0.37 0.23c-1.37,0.85 -3.08,0.7 -4.27,-0.25l-0 0 -8.95 -7.14 0 24.9zm30.23 -8.57l-31.88 18.07 -0 0 -0.03 0.02 -0.03 0.02 -0.02 0.01 -0.01 0.01 -0.03 0.02 -0.03 0.02 -0.01 0.01 -0.02 0.01 -0.03 0.02 -0.03 0.02 -0 0 -0.03 0.02 -0.03 0.01 -0.02 0.01 -0.01 0.01 -0.03 0.02 -0.03 0.02 -0.01 0 -0.02 0.01 -0.03 0.01 -0.03 0.01 -0 0 -0.03 0.01 -0.03 0.01 -0.02 0.01 -0.01 0 -0.03 0.01 -0.03 0.01 -0.01 0 -0.02 0.01 -0.03 0.01 -0.03 0.01 -0.03 0.01 -0.03 0.01 -0.02 0.01 -0.01 0 -0.03 0.01 -0.03 0.01 -0.01 0 -0.02 0.01 -0.03 0.01 -0.03 0.01 -0.03 0.01 -0.03 0.01 -0.02 0.01 -0.01 0 -0.03 0.01 -0.03 0.01 -0.01 0 -0.02 0.01 -0.03 0.01 -0.03 0.01 0 0 -0.03 0.01 -0.03 0.01 -0.02 0.01 -0.01 0 -0.03 0.01 -0.04 0.01 -0.01 0 -0.02 0 -0.03 0.01 -0.04 0 -0.03 0.01 -0.03 0 -0.02 0 -0.01 0 -0.07 0.01 -0.01 0 -0.02 0 -0.04 0 -0.04 0 -0.04 0 -0.04 0 -0.02 0 -0.01 0 -0.04 0 -0.04 0 -0.01 0 -0.02 0 -0.04 0 -0.04 0 -0.04 0 -0.03 -0 -0.03 0 -0.01 0 -0.03 -0 -0.04 -0 -0.02 -0 -0.02 -0 -0.03 -0 -0.03 -0 -0.01 0 -0.03 -0 -0.04 -0 -0.03 -0 -0.04 -0 -0.03 -0 -0.03 -0 -0.01 -0 -0.03 -0.01 -0.03 -0 -0.02 -0 -0.02 -0 -0.03 -0.01 -0.03 -0 -0.01 -0 -0.02 -0 -0.03 -0.01 -0.03 -0.01 -0.03 -0.01 -0.03 -0.01 -0.02 -0.01 -0.01 -0 -0.07 -0.01 -0.01 -0.01 -0.02 -0 -0.03 -0.01 -0.03 -0.01 -0.01 -0 -0.02 -0.01 -0.03 -0.01 -0.03 -0.01 0 0 -0.03 -0.01 -0.03 -0.01 -0.02 -0.01 -0.01 -0 -0.03 -0.01 -0.03 -0.01 -0.01 -0.01 -0.02 -0.01 -0.03 -0.01 -0.03 -0.01 -0.01 -0 -0.02 -0.01 -0.03 -0.01 -0.03 -0.01 -0.03 -0.01 -0.03 -0.01 -0.02 -0.01 -0.01 -0 -0.03 -0.01 -0.03 -0.01 -0.02 -0.01 -0.01 -0.01 -0.03 -0.01 -0.03 -0.01 -0.01 -0 -0.02 -0.01 -0.03 -0.01 -0.03 -0.02 -0.03 -0.02 -0.03 -0.02 -0.02 -0.01 -0.01 -0 -0.03 -0.02 -0.03 -0.02 -0.03 -0.02 -0.03 -0.02 -0.03 -0.02 -0.01 -0 -0.02 -0.01 -32.31 -16.96c-1.33,-0.69 -2.07,-2.08 -1.99,-3.49l0.89 -17.3 -6.8 -3.86c-1.79,-1.01 -2.42,-3.29 -1.4,-5.08 0.13,-0.24 0.29,-0.45 0.46,-0.64l8.48 -10.35 -7.73 -4.49c-0.52,-0.3 -0.98,-0.73 -1.31,-1.28 -1.07,-1.76 -0.52,-4.05 1.24,-5.12l26.35 -16.12c0.93,-0.61 2.11,-0.8 3.24,-0.42l13.88 4.72 12.47 -4.4c1.18,-0.41 2.42,-0.21 3.37,0.46l24.76 15.63c1.74,1.1 2.26,3.4 1.17,5.14 -0.28,0.45 -0.64,0.81 -1.05,1.09l-6.95 4.74 7.93 9.94c1.28,1.61 1.01,3.96 -0.6,5.24 -0.18,0.14 -0.37,0.27 -0.57,0.37l-5.64 3.48 0 17.36 -0.01 0c-0,1.3 -0.68,2.55 -1.89,3.24zm-37.7 8.81l0 -25.32 -9.19 7.05 -0.05 0.04 -0.01 0 -0.05 0.04 -0.01 0.01 -0.05 0.03 -0.06 0.04 -0.02 0.01c-1.23,0.8 -2.79,0.78 -3.98,0.04l-11.04 -6.27 -0.58 11.19 25.04 13.14zm-17.87 -49.46l21.63 12.3 22.02 -12.29 -21.1 -13.33 -22.55 13.32z"/>
 </g>
</svg>
