<?xml version="1.0" encoding="UTF-8"?>
<!DOCTYPE svg PUBLIC "-//W3C//DTD SVG 1.1//EN" "http://www.w3.org/Graphics/SVG/1.1/DTD/svg11.dtd">
<!-- Creator: CorelDRAW 2020 (64 Bit) -->
<svg xmlns="http://www.w3.org/2000/svg" xml:space="preserve" width="17.0552mm" height="17.0552mm" version="1.1" style="shape-rendering:geometricPrecision; text-rendering:geometricPrecision; image-rendering:optimizeQuality; fill-rule:evenodd; clip-rule:evenodd"
viewBox="0 0 158.06 158.06"
 xmlns:xlink="http://www.w3.org/1999/xlink"
 xmlns:xodm="http://www.corel.com/coreldraw/odm/2003">
 <defs>
  <style type="text/css">
   <![CDATA[
       .fil0 {fill:#FFB60D}
   ]]>
  </style>
 </defs>
 <g id="Camada_x0020_1">
  <metadata id="CorelCorpID_0Corel-Layer"/>
  <path class="fil0" d="M79.03 0c43.65,0 79.03,35.38 79.03,79.03 0,43.65 -35.38,79.03 -79.03,79.03 -43.65,0 -79.03,-35.38 -79.03,-79.03 0,-43.65 35.38,-79.03 79.03,-79.03zm-9.58 54.24l-5.04 8.73 1.27 4.74c0.25,0.92 -0.3,1.87 -1.22,2.12 -0.92,0.25 -1.87,-0.3 -2.12,-1.22l-0.37 -1.4 -1.89 3.27c-0.48,0.83 -1.53,1.11 -2.36,0.63 -0.82,-0.48 -1.11,-1.53 -0.63,-2.36l1.78 -3.08 -1.25 0.34c-0.92,0.25 -1.87,-0.3 -2.12,-1.22 -0.25,-0.92 0.3,-1.87 1.22,-2.12l4.59 -1.23 5.2 -9c-0.48,-0.58 -0.84,-1.25 -1.06,-1.96l-10.08 -0 -3.47 3.47c-0.67,0.67 -1.78,0.67 -2.45,-0 -0.67,-0.67 -0.67,-1.77 0,-2.44l1.03 -1.02 -3.78 0c-0.95,0 -1.73,-0.77 -1.73,-1.73 0,-0.95 0.77,-1.73 1.73,-1.73l3.56 0 -0.91 -0.91c-0.67,-0.67 -0.67,-1.77 0,-2.45 0.55,-0.55 1.41,-0.67 2.09,-0.27 0.13,0.08 0.25,0.17 0.36,0.28l3.36 3.36 10.4 0c0.11,-0.3 0.25,-0.59 0.41,-0.87 0.22,-0.37 0.47,-0.72 0.76,-1.03l-5.04 -8.73 -4.74 -1.27c-0.92,-0.24 -1.47,-1.2 -1.22,-2.12 0.25,-0.92 1.2,-1.47 2.12,-1.22l1.4 0.38 -1.89 -3.27c-0.48,-0.83 -0.19,-1.89 0.63,-2.36 0.54,-0.31 1.19,-0.31 1.73,0 0.26,0.15 0.48,0.37 0.63,0.63l1.78 3.08 0.33 -1.25c0.25,-0.92 1.2,-1.47 2.12,-1.22 0.15,0.04 0.29,0.1 0.42,0.17 0.68,0.39 1.01,1.19 0.81,1.94l-1.23 4.59 5.2 9.01c0.39,-0.07 0.79,-0.1 1.18,-0.08l0 11c-0.5,0.02 -1.01,-0.03 -1.5,-0.14zm-4.26 -2.23c0.31,0.54 0.31,1.21 -0.01,1.74l-1.24 2.09c-0.24,0.4 -0.63,0.69 -1.09,0.8l-4.51 1.07c-0.75,0.18 -1.53,-0.16 -1.9,-0.83 -0.38,-0.67 -0.27,-1.51 0.27,-2.06l3.09 -3.14c0.32,-0.33 0.76,-0.51 1.22,-0.52l2.66 -0.02c0.31,-0 0.61,0.08 0.88,0.23 0.26,0.15 0.48,0.37 0.64,0.64zm-8.3 -9.44c-0.53,-0.56 -0.62,-1.4 -0.23,-2.07 0.39,-0.66 1.18,-0.99 1.92,-0.79l4.26 1.11c0.15,0.04 0.3,0.1 0.43,0.18 0.26,0.15 0.48,0.36 0.63,0.62l1.35 2.29c0.32,0.54 0.32,1.21 0,1.74 -0.31,0.54 -0.89,0.87 -1.52,0.86l-2.43 -0.03c-0.47,-0.01 -0.92,-0.2 -1.24,-0.54l-3.18 -3.37zm11.06 -4.39l1.33 -4.44c0.22,-0.74 0.9,-1.24 1.67,-1.23l0 10.01c-0.05,0.01 -0.11,0.01 -0.16,0.01 -0.62,0 -1.2,-0.34 -1.5,-0.88l-1.19 -2.12c-0.23,-0.41 -0.28,-0.89 -0.15,-1.34zm-0.27 21.56c-0.12,-0.44 -0.06,-0.91 0.16,-1.31l1.31 -2.31c0.31,-0.54 0.88,-0.88 1.51,-0.88 0.1,0 0.19,0.01 0.29,0.03l0 9.94c-0.14,0.04 -0.29,0.06 -0.45,0.05 -0.77,-0.01 -1.44,-0.53 -1.65,-1.27l-1.17 -4.25zm20.56 43.27c5.97,1.43 10.42,6.8 10.42,13.21 0,7.5 -6.08,13.58 -13.58,13.58 -7.5,0 -13.58,-6.08 -13.58,-13.58 0,-6.41 4.44,-11.78 10.42,-13.21l0 -24.63c0,-1.74 1.42,-3.16 3.16,-3.16l0 0c1.74,0 3.16,1.42 3.16,3.16l0 24.63zm-3.16 -83.02c3.44,0 6.58,1.41 8.84,3.68 2.27,2.27 3.68,5.4 3.68,8.84l0 65.8c2.67,1.87 4.9,4.33 6.52,7.19 1.8,3.18 2.82,6.84 2.82,10.72 0,6.04 -2.45,11.5 -6.4,15.45 -3.96,3.96 -9.42,6.4 -15.45,6.4 -6.04,0 -11.5,-2.45 -15.45,-6.4 -3.96,-3.96 -6.4,-9.42 -6.4,-15.45 0,-3.88 1.03,-7.54 2.82,-10.72 1.62,-2.86 3.85,-5.32 6.52,-7.19l0 -65.8c0,-3.45 1.41,-6.58 3.68,-8.84 2.27,-2.27 5.4,-3.68 8.84,-3.68zm5.24 7.28c-1.35,-1.35 -3.2,-2.18 -5.24,-2.18 -2.04,0 -3.9,0.84 -5.24,2.18 -1.35,1.35 -2.18,3.2 -2.18,5.24l0 68.6 -1.23 0.75c-2.48,1.5 -4.54,3.61 -5.96,6.12 -1.37,2.42 -2.14,5.23 -2.14,8.24 0,4.63 1.88,8.82 4.91,11.86 3.03,3.03 7.22,4.91 11.85,4.91 4.63,0 8.82,-1.88 11.85,-4.91 3.03,-3.03 4.91,-7.23 4.91,-11.86 0,-3.01 -0.78,-5.82 -2.14,-8.24 -1.42,-2.51 -3.48,-4.62 -5.96,-6.12l-1.23 -0.75 0 -68.6c0,-2.04 -0.84,-3.9 -2.18,-5.24zm9.4 3.76l13.37 0 0 3.61 -13.37 0 0 -3.61zm0 10.4l7.64 0 0 3.61 -7.64 0 0 -3.61zm0 10.4l13.37 0 0 3.61 -13.37 0 0 -3.61zm0 10.4l7.64 0 0 3.61 -7.64 0 0 -3.61zm0 10.4l13.37 0 0 3.61 -13.37 0 0 -3.61zm0 10.4l7.64 0 0 3.61 -7.64 0 0 -3.61zm0 10.4l13.37 0 0 3.61 -13.37 0 0 -3.61z"/>
 </g>
</svg>
