<?xml version="1.0" encoding="UTF-8"?>
<!DOCTYPE svg PUBLIC "-//W3C//DTD SVG 1.1//EN" "http://www.w3.org/Graphics/SVG/1.1/DTD/svg11.dtd">
<!-- Creator: CorelDRAW 2020 (64 Bit) -->
<svg xmlns="http://www.w3.org/2000/svg" xml:space="preserve" width="17.0552mm" height="17.0552mm" version="1.1" style="shape-rendering:geometricPrecision; text-rendering:geometricPrecision; image-rendering:optimizeQuality; fill-rule:evenodd; clip-rule:evenodd"
viewBox="0 0 579.02 579.02"
 xmlns:xlink="http://www.w3.org/1999/xlink"
 xmlns:xodm="http://www.corel.com/coreldraw/odm/2003">
 <defs>
  <style type="text/css">
   <![CDATA[
       .fil0 {fill:#FFB60D}
   ]]>
  </style>
 </defs>
 <g id="Camada_x0020_1">
  <metadata id="CorelCorpID_0Corel-Layer"/>
  <path class="fil0" d="M289.51 0c159.89,0 289.51,129.62 289.51,289.51 0,159.89 -129.62,289.51 -289.51,289.51 -159.89,0 -289.51,-129.62 -289.51,-289.51 0,-159.89 129.62,-289.51 289.51,-289.51zm64.76 220.27l28.01 0 -41.51 -71.22c-3.34,-5.77 -10.76,-7.74 -16.53,-4.33 -5.77,3.35 -7.74,10.76 -4.33,16.53l34.36 59.03zm-95.03 -59.03c3.35,-5.77 1.44,-13.18 -4.33,-16.53 -5.77,-3.34 -13.19,-1.44 -16.53,4.33l-41.52 71.29 28.01 0 34.36 -59.09zm169.4 80.87l-278.34 0c-11.34,0 -20.53,9.18 -20.53,20.53l0 22.76c0,11.35 9.18,20.53 20.53,20.53l6.43 0 19.81 107.36c2.5,12.66 14.04,22.69 26.04,22.69l169.73 0c12,0 23.54,-10.03 26.04,-22.69l19.94 -107.42 10.43 0c11.34,0 20.53,-9.18 20.53,-20.53l0 -22.76c-0.06,-11.28 -9.25,-20.46 -20.59,-20.46zm-209.36 117.4c-10.88,-13.92 10.34,-32.38 24.27,-20.29l27.54 23.91 69.92 -59.41c11.25,-9.56 29.08,5.79 18.48,17.75l-76.44 86.22c-5.76,6.5 -20.73,6.85 -26.08,0l-37.67 -48.18z"/>
 </g>
</svg>
