<?xml version="1.0" encoding="UTF-8"?>
<!DOCTYPE svg PUBLIC "-//W3C//DTD SVG 1.1//EN" "http://www.w3.org/Graphics/SVG/1.1/DTD/svg11.dtd">
<!-- Creator: CorelDRAW 2020 (64 Bit) -->
<svg xmlns="http://www.w3.org/2000/svg" xml:space="preserve" width="17.055mm" height="16.7639mm" version="1.1" style="shape-rendering:geometricPrecision; text-rendering:geometricPrecision; image-rendering:optimizeQuality; fill-rule:evenodd; clip-rule:evenodd"
viewBox="0 0 633 622.19"
 xmlns:xlink="http://www.w3.org/1999/xlink"
 xmlns:xodm="http://www.corel.com/coreldraw/odm/2003">
 <defs>
  <style type="text/css">
   <![CDATA[
       .fil0 {fill:#FFB60D}
   ]]>
  </style>
 </defs>
 <g id="Camada_x0020_1">
  <metadata id="CorelCorpID_0Corel-Layer"/>
  <path class="fil0" d="M439.78 349.49c-9.82,1.56 -19.5,2.43 -28.88,2.43 -0.01,0 -0.01,0 -0.01,0 -9.61,0 -18.52,-0.82 -26.64,-2.39 0.35,1.53 0.81,3.04 1.45,4.52l38.79 89.21 -60.87 57.38 -104.14 0 -44.84 -53.35 11.84 -87.61c1.89,-14.07 -7.97,-27.01 -22.04,-28.91 -14.01,-1.9 -27.01,7.97 -28.92,22.02l-0.46 3.53 -12.89 95.39c-0.97,7.17 1.14,14.43 5.8,19.97l65.85 78.35c0.13,0.14 0.27,0.22 0.4,0.37l0 71.8c-54.34,-14.59 -102.9,-43.28 -141.52,-81.9 -57.27,-57.26 -92.7,-136.4 -92.7,-223.8 0,-87.4 35.43,-166.53 92.7,-223.8 57.27,-57.27 136.4,-92.7 223.8,-92.7 87.4,0 166.53,35.43 223.8,92.7 57.27,57.26 92.7,136.4 92.7,223.8 0,87.4 -35.43,166.53 -92.7,223.8 -37.97,37.97 -85.55,66.34 -138.78,81.14l0 -85.91 71.38 -67.27c7.89,-7.42 10.27,-19 5.95,-28.95l-39.07 -89.81zm-275.78 19.43l2.35 -17.37c2.33,-17.27 17.23,-30.3 34.65,-30.3 1.55,0 3.11,0.12 4.68,0.32 15.31,2.07 26.82,13.84 29.55,28.24 0.03,-0.01 0.07,0 0.1,-0.01 5.17,-1.4 8.25,-6.7 6.85,-11.88l-26.32 -98.29c-1.4,-5.17 -6.72,-8.25 -11.89,-6.87 -5.17,1.39 -8.23,6.7 -6.86,11.88l-49.6 13.29c-1.4,-5.17 -6.71,-8.24 -11.88,-6.85l-8.49 2.28 31.39 117.01 5.48 -1.46zm144.66 -16.73c-33.92,0 -61.4,27.5 -61.4,61.4 0,33.93 27.48,61.43 61.4,61.43 33.93,0 61.41,-27.5 61.41,-61.43 0,-33.9 -27.48,-61.4 -61.41,-61.4zm-18.54 -99.59l-39.26 10.51c-2.31,-4.37 -6.81,-7.1 -11.71,-7.2 -2.71,-4.05 -6.84,-6.9 -11.5,-8.05l20.59 76.84c3.39,-3.31 5.67,-7.68 6,-12.52 4.17,-2.55 6.71,-7.15 6.52,-12.08l0 -0.01 39.26 -10.51c2.82,5.33 8.9,8.24 14.97,6.91 7.73,5.62 17.43,10.15 28.68,13.48 8.13,29.77 58.9,41.18 115.68,25.97l4.69 -1.25 -6.85 -25.55c3.74,-0.85 7.47,-1.75 11.22,-2.77l-40.85 -152.49c-3.76,1 -7.45,2.11 -11.1,3.22l-6.83 -25.53 -4.68 1.24c-56.81,15.24 -95.06,50.49 -87.22,80.34 -8.08,8.48 -14.21,17.27 -18.09,26 -5.93,1.88 -9.73,7.45 -9.51,13.47zm157.58 58.55l4.45 16.58c-44.07,10.63 -85.26,3.99 -96.7,-14.87 25.92,5.29 58.08,4.99 92.25,-1.71zm-44.92 -167.67l4.44 16.59c-32.94,11.27 -60.93,27.09 -80.75,44.63 0.5,-22.04 32.84,-48.4 76.32,-61.22z"/>
 </g>
</svg>
