<?xml version="1.0" encoding="UTF-8"?>
<!DOCTYPE svg PUBLIC "-//W3C//DTD SVG 1.1//EN" "http://www.w3.org/Graphics/SVG/1.1/DTD/svg11.dtd">
<!-- Creator: CorelDRAW 2020 (64 Bit) -->
<svg xmlns="http://www.w3.org/2000/svg" xml:space="preserve" width="17.0552mm" height="17.0552mm" version="1.1" style="shape-rendering:geometricPrecision; text-rendering:geometricPrecision; image-rendering:optimizeQuality; fill-rule:evenodd; clip-rule:evenodd"
viewBox="0 0 618.56 618.56"
 xmlns:xlink="http://www.w3.org/1999/xlink"
 xmlns:xodm="http://www.corel.com/coreldraw/odm/2003">
 <defs>
  <style type="text/css">
   <![CDATA[
       .fil0 {fill:#FFB60D}
   ]]>
  </style>
 </defs>
 <g id="Camada_x0020_1">
  <metadata id="CorelCorpID_0Corel-Layer"/>
  <path class="fil0" d="M235.56 261.38c-12.61,10.4 -6.5,39.89 22.9,22.11 0,0 35.93,-18.01 56.92,-29.92 4.58,-2.59 7.64,-1.73 11.46,2.61 4.2,3.03 99.31,109.26 99.31,109.26 0,0 29.32,-22.27 40.77,-45.68 0,0 -26.35,-49.54 -51.46,-98.7 -7.28,4.13 -13.5,8.03 -21.85,5.66 -8.65,-2.46 -15.81,-9.22 -23.62,-13.76 -8.91,-5.18 -16.45,-9.86 -26.38,-11.28 -14.69,-2.1 -26.27,4.48 -38.93,11.75 -14.4,8.26 -28.38,17.54 -42.06,27.25 -9.23,6.54 -18.26,13.44 -27.06,20.71zm18.46 165.43c-4.93,-6.8 -4,-16.95 2.1,-22.66l30.18 -27.48c6.1,-5.75 15.05,-4.87 20,1.91 4.94,6.79 4,16.93 -2.11,22.67l-30.16 27.47c-6.09,5.72 -15.07,4.88 -20.02,-1.91zm-27.84 -25.3c-4.95,-6.8 -4,-16.94 2.1,-22.67l23.81 -21.67c6.11,-5.73 15.05,-4.86 20.01,1.91 4.94,6.81 4,16.94 -2.1,22.67l-23.79 21.67c-6.1,5.72 -15.07,4.87 -20.02,-1.92zm-33.7 -20.67c-4.59,-7.11 -3.17,-17.17 3.21,-22.5l5.33 -4.16c6.38,-5.34 15.27,-3.91 19.89,3.17l0.32 0.4c4.61,7.1 2.85,16.76 -3.53,22.11l-5.33 4.15c-6.37,5.34 -15.28,3.94 -19.89,-3.17zm133.35 30.56c-5.24,-6.48 -14.21,-6.86 -20.07,-0.8l-13.02 13.51c-5.85,6.05 -6.35,16.24 -1.13,22.75 5.24,6.51 14.24,6.85 20.08,0.81l13 -13.51c5.86,-6.06 6.36,-16.24 1.14,-22.76zm185.99 -113.95c2.15,4.12 0.97,8.97 -2.6,10.83l-21.88 11.54c-3.58,1.84 -8.22,0.01 -10.34,-4.12l-52 -100.45c-2.14,-4.13 -0.97,-8.97 2.61,-10.83l21.88 -11.53c3.58,-1.86 8.21,-0.02 10.35,4.11l51.98 100.45zm-370.67 17.29c-1.63,4.35 -5.81,6.8 -9.33,5.47l-22.08 -7.67c-3.51,-1.33 -5.05,-5.93 -3.41,-10.28l39.84 -105.86c1.63,-4.35 5.82,-6.8 9.35,-5.47l22.08 7.67c3.52,1.32 5.05,5.93 3.41,10.27l-39.85 105.85zm283.82 63.71l-0.07 -0.07c-0.44,2.42 -1.13,4.45 -2.95,6.5 -2.94,3.28 -6.77,4.92 -10.63,4.92 -4.04,0 -8.11,-1.79 -11.2,-5.35l-37.57 -42.6c-0.73,-0.85 -1.59,-1.2 -2.48,-1.2 -3.59,0 -7.55,5.9 -4.33,9.29l30.84 34.08c5.84,6.72 5.98,17.12 0.18,23.62 -2.68,3 -6.01,4.43 -9.4,4.43 -3.92,0 -7.91,-1.92 -11.04,-5.52l-35.33 -39.38c-0.78,-1.26 -1.79,-1.78 -2.82,-1.78 -3.32,0 -6.82,5.53 -3.32,9.51l27.18 31.16c5.68,6.52 5.24,16.67 -0.39,22.97 -2.58,2.88 -5.74,4.23 -8.97,4.23 -1.89,0 -3.79,-0.47 -5.61,-1.37 -1.11,3.01 -2.77,5.83 -4.95,8.31 3.34,1.84 6.94,2.86 10.56,2.86 5.94,0 11.54,-2.6 15.77,-7.32 4.39,-4.91 6.71,-11.15 6.96,-17.43 3.67,2.29 7.8,3.55 11.95,3.55 6.11,0 11.89,-2.67 16.23,-7.54 4.36,-4.88 6.62,-11.16 6.78,-17.53 3.39,1.82 7.14,2.8 10.95,2.8 6.64,0 12.84,-2.85 17.46,-8.02 4.42,-4.95 5.17,-10.08 5.72,-13.84 0.3,-2.03 -0.08,-4.08 -0.94,-5.87 -1.07,0.85 -1.75,1.38 -1.92,1.51l-6.67 5.07zm-235.11 -27.77l0.13 -0.11 0.14 -0.11 2.24 -1.75c-18.43,-18.71 -29.71,-32.48 -29.71,-32.48 17.71,-45.08 37.72,-100.02 37.72,-100.02 -0.16,3.12 10.31,8.68 12.43,9.52 3.49,1.41 7.29,2.07 11.04,2.07 1.06,0 2.13,-0.05 3.18,-0.16 11.04,-1.12 21.42,-7.49 31.18,-12.99 6.56,-3.7 14.71,-7.5 22.41,-7.5 3.66,0 7.2,0.94 10.45,3.07 2.95,-1.8 5.86,-3.52 8.72,-5.17 -0.48,-0.63 -1.02,-1.21 -1.66,-1.72 -4.99,-3.97 -10.88,-5.98 -17.51,-5.98 -10.25,0 -20.23,4.95 -26.83,8.66l-2.55 1.44c-8.3,4.72 -16.89,9.6 -25.1,10.43 -0.75,0.07 -1.52,0.11 -2.28,0.11 -2.73,0 -5.39,-0.49 -7.7,-1.43 -1.64,-0.7 -5.46,-2.91 -7.21,-4.32 -1.18,-2.8 -3.59,-4.96 -6.61,-5.64 -0.65,-0.15 -1.31,-0.22 -1.96,-0.22 -3.8,0 -7.33,2.45 -8.73,6.31 -0.2,0.55 -20.18,55.34 -37.64,99.78 -1.34,3.41 -0.74,7.32 1.55,10.11 0.48,0.59 11.64,14.16 29.96,32.79 1.24,-1.73 2.67,-3.33 4.34,-4.73zm119.43 -350.67c170.81,0 309.28,138.47 309.28,309.28 0,170.81 -138.47,309.28 -309.28,309.28 -170.81,0 -309.28,-138.47 -309.28,-309.28 0,-170.81 138.47,-309.28 309.28,-309.28z"/>
 </g>
</svg>
