<?xml version="1.0" encoding="UTF-8"?>
<!DOCTYPE svg PUBLIC "-//W3C//DTD SVG 1.1//EN" "http://www.w3.org/Graphics/SVG/1.1/DTD/svg11.dtd">
<!-- Creator: CorelDRAW 2020 (64 Bit) -->
<svg xmlns="http://www.w3.org/2000/svg" xml:space="preserve" width="17.0552mm" height="17.0552mm" version="1.1" style="shape-rendering:geometricPrecision; text-rendering:geometricPrecision; image-rendering:optimizeQuality; fill-rule:evenodd; clip-rule:evenodd"
viewBox="0 0 597.69 597.69"
 xmlns:xlink="http://www.w3.org/1999/xlink"
 xmlns:xodm="http://www.corel.com/coreldraw/odm/2003">
 <defs>
  <style type="text/css">
   <![CDATA[
       .fil0 {fill:#FFB60D}
   ]]>
  </style>
 </defs>
 <g id="Camada_x0020_1">
  <metadata id="CorelCorpID_0Corel-Layer"/>
  <path class="fil0" d="M298.85 0c165.05,0 298.85,133.8 298.85,298.85 0,165.05 -133.8,298.85 -298.85,298.85 -165.05,0 -298.85,-133.8 -298.85,-298.85 0,-165.05 133.8,-298.85 298.85,-298.85zm-18.69 391.4c-12.83,11.86 -30.58,14.51 -46.33,6.93 -5.69,-2.74 -10.49,-6.53 -14.25,-11.06l-21.44 47.41c-0.97,2.16 0.12,3.78 0.63,4.38 0.52,0.6 1.96,1.92 4.23,1.29l15.61 -4.35c1.78,-0.49 3.58,-0.73 5.35,-0.73 7.48,0 14.52,4.23 17.9,11.25l7.05 14.59c1,2.06 2.84,2.33 3.68,2.33l0.08 -0c0.79,-0.01 2.73,-0.27 3.7,-2.42l34.1 -75.42c-3.75,1.08 -7.3,3.01 -10.32,5.8zm37.38 0c12.83,11.86 30.58,14.51 46.33,6.93 5.69,-2.74 10.49,-6.53 14.25,-11.06l21.44 47.41c0.97,2.16 -0.12,3.78 -0.63,4.38 -0.51,0.6 -1.95,1.92 -4.23,1.29l-15.61 -4.35c-1.78,-0.49 -3.57,-0.73 -5.35,-0.73 -7.48,0 -14.52,4.23 -17.9,11.25l-7.05 14.59c-1,2.06 -2.84,2.33 -3.69,2.33l-0.08 -0c-0.79,-0.01 -2.73,-0.27 -3.7,-2.42l-34.1 -75.42c3.75,1.08 7.3,3.01 10.32,5.8zm-18.69 -41.16c-46.66,0 -84.62,-37.96 -84.62,-84.62 0,-46.66 37.96,-84.62 84.62,-84.62 46.66,0 84.62,37.96 84.62,84.62 0,46.66 -37.96,84.62 -84.62,84.62zm117.54 -82.38c-17.8,-12.19 -23.33,-36.39 -12.57,-55.1 6.46,-11.25 3.1,-22.36 -2.2,-29.01 -5.3,-6.65 -15.39,-12.4 -27.79,-8.6 -20.63,6.32 -43,-4.45 -50.92,-24.52 -4.76,-12.07 -15.55,-16.37 -24.05,-16.37 -8.51,0 -19.29,4.3 -24.05,16.37 -7.92,20.07 -30.29,30.84 -50.92,24.52 -12.4,-3.8 -22.49,1.95 -27.79,8.6 -5.3,6.65 -8.67,17.76 -2.2,29.01 10.75,18.71 5.23,42.91 -12.57,55.1 -10.7,7.33 -12.49,18.8 -10.6,27.09 1.89,8.29 8.48,17.85 21.3,19.81 21.33,3.26 36.81,22.67 35.24,44.18 -0.94,12.94 6.91,21.49 14.57,25.18 7.66,3.69 19.24,4.5 28.77,-4.31 7.92,-7.32 18.09,-10.98 28.26,-10.98 10.17,0 20.33,3.66 28.26,10.98 9.53,8.81 21.11,8 28.77,4.31 7.66,-3.69 15.51,-12.24 14.57,-25.18 -1.57,-21.52 13.91,-40.93 35.24,-44.19 12.82,-1.96 19.41,-11.52 21.3,-19.81 1.89,-8.29 0.1,-19.76 -10.6,-27.09zm-147.11 -8.7c3.57,-2.51 8.49,-1.64 10.99,1.92l8.2 11.67 36.36 -26.56c3.52,-2.57 8.45,-1.8 11.02,1.72 2.57,3.52 1.8,8.46 -1.72,11.03l-42.85 31.29c-1.36,0.99 -2.99,1.52 -4.65,1.52 -0.43,0 -0.86,-0.03 -1.29,-0.11 -2.09,-0.34 -3.95,-1.51 -5.17,-3.25l-12.82 -18.25c-2.51,-3.57 -1.64,-8.49 1.92,-10.99zm98.41 6.46c0,-37.96 -30.88,-68.85 -68.84,-68.85 -37.96,0 -68.85,30.88 -68.85,68.85 0,37.96 30.88,68.84 68.85,68.84 37.96,0 68.84,-30.88 68.84,-68.84z"/>
 </g>
</svg>
