<?xml version="1.0" encoding="UTF-8"?>
<!DOCTYPE svg PUBLIC "-//W3C//DTD SVG 1.1//EN" "http://www.w3.org/Graphics/SVG/1.1/DTD/svg11.dtd">
<!-- Creator: CorelDRAW 2020 (64 Bit) -->
<svg xmlns="http://www.w3.org/2000/svg" xml:space="preserve" width="17.0552mm" height="17.0552mm" version="1.1" style="shape-rendering:geometricPrecision; text-rendering:geometricPrecision; image-rendering:optimizeQuality; fill-rule:evenodd; clip-rule:evenodd"
viewBox="0 0 559.4 559.4"
 xmlns:xlink="http://www.w3.org/1999/xlink"
 xmlns:xodm="http://www.corel.com/coreldraw/odm/2003">
 <defs>
  <style type="text/css">
   <![CDATA[
       .fil0 {fill:#FFB60D}
   ]]>
  </style>
 </defs>
 <g id="Camada_x0020_1">
  <metadata id="CorelCorpID_0Corel-Layer"/>
  <path class="fil0" d="M279.7 0c154.48,0 279.7,125.22 279.7,279.7 0,154.48 -125.22,279.7 -279.7,279.7 -154.48,0 -279.7,-125.22 -279.7,-279.7 0,-154.48 125.22,-279.7 279.7,-279.7zm33.06 118.9c-1.38,-0.28 -2.7,-0.46 -3.99,-0.55 0.01,-0.03 0.02,-0.06 0.02,-0.1 0,-1.19 -0.97,-2.16 -2.17,-2.16 -15.87,0 -23.1,12.71 -23.1,24.51 0,6.58 2.15,12.74 6.03,17.36 4.44,5.28 10.73,8.08 18.19,8.08 1.2,0 2.16,-0.97 2.16,-2.15 0,-0.03 -0.01,-0.06 -0.01,-0.1 0.32,-0.03 0.63,-0.05 0.95,-0.08 24.47,-2.57 26.56,-39.77 1.92,-44.81zm47.2 17.92c-2.35,-0.54 -4.62,-0.82 -6.74,-0.82 -12.84,0 -18.77,9.63 -18.97,19.17 -0.2,10.35 6.53,21.63 19.42,22.14 0.26,0.01 0.51,0 0.75,0.01 11.36,0 19.33,-10.19 20.46,-20.05 0.92,-7.99 -2.52,-17.57 -14.92,-20.46zm12.23 222.38c-18.93,-29.48 -37.52,-56.64 -57.16,-85.3 0.63,-9.84 0.26,-20.64 -0.1,-31.11 -0.83,-23.93 -1.68,-48.67 9.53,-58.52 1.67,-1.47 2.3,-3.79 1.62,-5.9 -0.69,-2.11 -2.57,-3.6 -4.79,-3.8 -8.86,-0.78 -62.69,-0.83 -68.77,-0.83 -4.67,0 -8.8,-0.05 -12.63,-0.13 -0.83,-0.02 -1.67,0.14 -2.43,0.49 -3.18,1.45 -3.99,3.9 -4.19,5.23 -0.57,3.81 2.23,6.3 4.08,7.94 0.46,0.41 1.22,1.08 1.45,1.39 5.19,9.04 6.49,80.98 5.98,83.95 -0.61,3.59 -9.76,15.91 -13.66,21.17 -1.82,2.45 -58.76,85.66 -62.25,93.93 -5.72,13.57 -7.94,32.27 2.94,44.07 9.86,10.65 25.91,11.55 41.51,11.55 3.48,0 125.86,-0.07 129.1,-0.07 0.01,0 0.01,0 0.01,0 17.09,0 36.12,-0.98 45.61,-12.71 17.63,-21.8 -1.06,-49.41 -12.23,-65.91 -1.33,-1.96 -2.58,-3.81 -3.61,-5.42zm-172.08 52.56c-2.95,-5.28 -3.33,-11.54 -1.07,-17.67 23.55,-42.5 38.07,-49.08 44.64,-49.22 8.41,-0.17 17.93,-0.26 29.12,-0.26 10.27,0 20.62,0.07 30.63,0.14 8.4,0.05 16.39,0.11 23.94,0.12 0.06,0.11 0.13,0.23 0.21,0.34 2.31,3.54 5.47,7.6 9.14,12.3 11.47,14.72 27.17,34.87 24.37,50.42 -1.74,9.64 -9.29,12.73 -31.06,12.73 -2.48,0 -92.68,0.08 -96.7,0.27 -3.86,0.2 -7.87,0.39 -11.53,0.39 -3.94,0 -7.09,-0.23 -9.66,-0.7 -5.01,-0.92 -9.4,-4.15 -12.04,-8.86zm143.55 -186.73c1.96,0.58 3.91,0.88 5.81,0.88 0,0 0,0 0,0 10.74,0 17.63,-9.16 18.66,-17.77 1.13,-9.41 -4.22,-16.96 -13.62,-19.24 -1.86,-0.45 -3.68,-0.69 -5.43,-0.69 -10.67,0 -16.63,8.13 -17.81,16.18 -1.14,7.83 2.25,17.62 12.39,20.63zm21.07 40.97c1.71,0.51 3.42,0.77 5.08,0.77 0.01,0 0.01,0 0.01,0 9.42,0 15.46,-8.02 16.36,-15.56 0.99,-8.26 -3.7,-14.89 -11.96,-16.89 -1.62,-0.4 -3.22,-0.6 -4.74,-0.6 -9.37,0 -14.6,7.13 -15.64,14.19 -1,6.86 1.98,15.44 10.88,18.09z"/>
 </g>
</svg>
