<?xml version="1.0" encoding="UTF-8"?>
<!DOCTYPE svg PUBLIC "-//W3C//DTD SVG 1.1//EN" "http://www.w3.org/Graphics/SVG/1.1/DTD/svg11.dtd">
<!-- Creator: CorelDRAW 2020 (64 Bit) -->
<svg xmlns="http://www.w3.org/2000/svg" xml:space="preserve" width="61.5554mm" height="42.0881mm" version="1.1" style="shape-rendering:geometricPrecision; text-rendering:geometricPrecision; image-rendering:optimizeQuality; fill-rule:evenodd; clip-rule:evenodd"
viewBox="0 0 434.28 296.94"
 xmlns:xlink="http://www.w3.org/1999/xlink"
 xmlns:xodm="http://www.corel.com/coreldraw/odm/2003">
 <defs>
  <style type="text/css">
   <![CDATA[
    .fil0 {fill:#FFB60D}
   ]]>
  </style>
 </defs>
 <g id="Camada_x0020_1">
  <metadata id="CorelCorpID_0Corel-Layer"/>
  <path class="fil0" d="M321.71 193.01c35.52,-3.42 70.13,7.43 107.04,0l0.31 -12.85c-0.78,-4.27 -20.38,-10.91 -42.21,-7.09 -30.36,5.32 -66.38,-3.74 -64.83,7.09l-0.31 12.85zm107.35 56.99l-107.04 0 -0.31 -12.85c0.78,-4.27 20.38,-10.91 42.21,-7.09 30.36,5.32 66.38,-3.74 64.83,7.09l0.31 12.85zm0 -28.5c-35.52,-3.42 -70.13,7.43 -107.04,0l-0.31 -12.85c0.78,-4.27 20.38,-10.91 42.21,-7.09 30.36,5.32 66.38,-3.74 64.83,7.09l0.31 12.85zm-239.77 -179.82c0.06,-0.63 0.18,-1.24 0.3,-1.85 13.36,0.02 37.74,0.07 51.21,0.01 0.41,2.4 0.52,4.89 0.24,7.44 -1.59,14.67 -14.49,25.35 -28.75,23.81 -14.28,-1.54 -24.58,-14.73 -23,-29.4zm-5.78 -1.25c-1.82,-1.82 -1.75,-6.89 -0.23,-8.86 0.64,-5.6 2.33,-7.56 2.18,-11.01 -0.17,-4.05 3.54,-7.08 6.04,-9.89 1.8,-2.02 3,-4.57 6,-5.23 4.6,-1.01 8.24,-4.44 12.75,-5.21 4.99,-0.85 10.02,0.77 14.99,1.17 4.06,0.32 7.5,3.46 10.68,6.46 3.27,3.08 4.81,7.8 8.09,12.01 2.33,2.98 2.36,6.95 2.97,11.06 2.92,3.55 1.28,6.94 -0.23,8.86 0.37,2.63 0.45,5.35 0.17,8.11 -1.94,17.91 -17.76,30.94 -35.26,29.05 -17.49,-1.89 -30.16,-18 -28.24,-35.91 0.02,-0.21 0.06,-0.41 0.09,-0.62zm-19.51 168.96c-0.64,2.71 -28.68,75.09 -28.68,75.09l0.04 0.12c-0.31,0.92 -0.52,1.87 -0.52,2.9 0,5 4.06,9.05 9.06,9.05l26.57 0c4.99,0 9.05,-4.05 9.05,-9.05 0,-5 -4.06,-9.05 -9.05,-9.05l-5.23 0c8.92,-19.55 24.72,-55.96 25.09,-58.53 0.51,-3.59 1.28,-13.61 1.28,-13.61l-25.66 -27.33c0,0 -1.29,27.72 -1.93,30.41zm244.31 78.82c-4,0 -7.24,-3.24 -7.24,-7.24 0,-1.82 0.73,-3.42 1.83,-4.69 0.65,-0.85 1.47,-1.52 2.5,-1.91 0.9,-0.4 1.87,-0.64 2.91,-0.64 3.99,0 7.24,3.24 7.24,7.24 0,4 -3.24,7.24 -7.24,7.24zm-81.11 -0.53c-3.79,0 -6.88,-3.09 -6.88,-6.87 0,-3.79 3.09,-6.87 6.88,-6.87 3.79,0 6.87,3.08 6.87,6.87 0,3.78 -3.08,6.87 -6.87,6.87zm107.09 -29.26l-120.13 0 0 -102.03c0,-3.4 -2.76,-6.16 -6.16,-6.16l-22.95 0c-0.42,-0.88 -0.96,-1.67 -1.6,-2.38l0.05 -0.06c0,0 -63.28,-61.92 -68.03,-63.14 -4.74,-1.21 -21.36,-5.34 -23.65,-5.81 -2.28,-0.5 -6,-0.87 -7.4,4.14 -1.42,5 -22.55,74.24 -18.49,83.29 4.62,10.27 43.64,46.2 45.69,50.32 1.86,3.73 1.19,60.33 1.05,70.74 -0.01,0.18 -0.05,0.36 -0.05,0.55 0,0.15 0.04,0.28 0.04,0.43 0,0.42 -0.01,0.67 -0.01,0.67l0.08 0c0.55,4.48 4.31,7.95 8.94,7.95l26.57 0c5,0 9.05,-4.05 9.05,-9.05 0,-4.99 -4.05,-9.05 -9.05,-9.05l-10.99 0c0.92,-20.46 2.77,-65.2 1.59,-69.95 -1.54,-6.16 -29.4,-39.4 -29.4,-39.4l12.46 -45.31 46.97 38.25 0.04 -0.05c1.84,1.68 4.25,2.73 6.92,2.73 2.59,0 4.92,-0.99 6.72,-2.56l19.31 0 0 109.73 11.74 0c-1.55,2.49 -2.49,5.38 -2.49,8.53 0,8.89 7.24,16.11 16.12,16.11 8.88,0 16.11,-7.22 16.11,-16.11 0,-3.15 -0.94,-6.04 -2.49,-8.53l53.17 0c-1.08,2.17 -1.94,5.57 -1.94,8.14 0,8.89 7.23,16.12 16.11,16.12 8.89,0 16.12,-7.23 16.12,-16.12 0,-2.57 -0.47,-5.98 -1.54,-8.14l11.54 0 0 -13.86zm-362.47 -258.08c-0.73,-0.24 -1.48,-0.36 -2.23,-0.36 -2.96,0 -5.27,1.84 -5.76,4.58 -0.34,1.9 0.13,3.74 1.33,5.16 1.27,1.52 3.22,2.42 5.22,2.42 0,0 0,0 0,0 1.65,0 3.12,-0.63 4.13,-1.76 0.8,-0.9 1.69,-2.55 1.37,-5.3 -0.2,-1.71 -1.37,-3.86 -4.06,-4.74zm-13.16 17.05c-0.75,-0.18 -1.48,-0.27 -2.17,-0.27 -2.49,0 -3.98,1.15 -4.79,2.12 -0.98,1.18 -1.53,2.76 -1.53,4.47 0,3.56 2.4,7.35 6.85,7.35 3.96,0 6.4,-3.15 6.77,-6.27 0.35,-2.98 -1.09,-6.43 -5.13,-7.4zm11.2 28.2c0.9,4.46 4.17,7.34 8.55,7.54 0.15,0.01 0.31,0.01 0.46,0.01l0 0c2.95,0 5.75,-1.19 7.48,-3.18 1.24,-1.42 2.6,-4 2.03,-8.2 -0.35,-2.53 -1.91,-6.89 -8.48,-7.63 -0.71,-0.08 -1.33,-0.12 -1.92,-0.12 -1.39,0 -2.54,0.22 -3.51,0.68 -4.08,1.93 -5.41,6.94 -4.61,10.89zm38.22 -1.27c-0.1,-0.02 -0.19,-0.02 -0.29,-0.02l-6.92 0c-0.41,0 -0.81,0.14 -1.13,0.41 -1.85,1.53 -3.16,3.64 -4.42,5.68l-0.02 0.04c-0.24,0.39 -0.55,0.83 -0.87,1.3 -1.04,1.51 -2.22,3.23 -2.61,4.93 -0.95,4.17 -0.66,10.2 -0.35,16.59 0.15,3.04 0.3,6.19 0.3,9.04l0 50.06c0,1.65 0.07,3.68 0.15,5.82 0.18,5.22 0.52,14.94 -0.93,16.62 -0.24,0.27 -1.53,1.16 -8.26,1.16 -1.54,0 -3.1,-0.04 -4.6,-0.08 -1.34,-0.03 -2.6,-0.07 -3.71,-0.07l-38.66 0c-1.2,0 -2.63,0.06 -4.16,0.11 -1.79,0.07 -3.64,0.14 -5.45,0.14 -5.4,0 -6.78,-0.71 -7.12,-1.02 -0.16,-0.14 -0.97,-1.1 -1.23,-5.9 -0.18,-3.3 -0.05,-7.32 0.06,-10.87 0.06,-2.02 0.12,-3.92 0.12,-5.52l0 -63.08c0,-1.4 0.08,-2.88 0.15,-4.31 0.15,-3 0.3,-5.84 -0.19,-8.25 -0.39,-1.92 -1.56,-3.72 -2.7,-5.46 -0.27,-0.41 -3.47,-5.55 -5.26,-6.97 -0.31,-0.25 -0.7,-0.38 -1.1,-0.38l-6.51 0c-0.23,0 -0.45,0.04 -0.66,0.13 -1.12,0.45 -1.5,1.27 -1.63,1.73 -0.4,1.45 0.6,2.78 1.27,3.65 0.11,0.14 0.25,0.34 0.29,0.4 0.75,1.32 1.67,2.69 2.65,4.14 1.17,1.74 2.37,3.53 3.22,5.17l0 78.53c0,1.16 -0.01,2.33 -0.02,3.49 -0.07,8.39 -0.15,16.32 3.75,20.51 3.08,3.31 9.95,4.79 22.28,4.79 4.23,0 25.99,-0.44 29.27,-0.31 4.08,0.17 8.71,0.35 13.24,0.35 0,0 0,0 0,0 12.07,0 18.85,-1.34 21.98,-4.35 4.27,-4.11 4.25,-11.77 4.21,-21.47 -0,-0.85 -0.01,-1.72 -0.01,-2.6l0 -65.93c0,-1.55 -0.08,-3.18 -0.16,-4.75 -0.14,-2.9 -0.29,-5.91 0.12,-7.92 0.44,-2.18 1.9,-4.03 3.45,-5.99 1.35,-1.71 2.74,-3.48 3.69,-5.67 0.44,-0.64 0.77,-1.58 0.45,-2.48 -0.27,-0.73 -0.9,-1.25 -1.71,-1.38zm-86.71 17.21l0 89.12c0,0.98 0.79,1.77 1.77,1.77l63.49 0c0.98,0 1.77,-0.79 1.77,-1.77l0 -87.85c0.12,-2.25 -0.98,-2.89 -1.93,-3.03 -0.08,-0.01 -0.17,-0.02 -0.25,-0.02l-63.08 0c-0.98,0 -1.77,0.79 -1.77,1.77zm22.38 77.47l0 2.97 -10.29 0 0 -2.97 10.29 0zm-10.29 -10.87l0 -2.97 10.29 0 0 2.97 -10.29 0zm0 -13.43l0 -3.37 10.29 0 0 3.37 -10.29 0zm0 -27.67l0 -2.97 10.29 0 0 2.97 -10.29 0zm0 13.84l0 -3.37 10.31 0c0.06,0.71 0.02,1.62 -0.01,2.42 -0.01,0.32 -0.03,0.64 -0.04,0.96l-10.26 0zm0 -27.67l0 -2.97 10.29 0 0 2.97 -10.29 0z"/>
 </g>
</svg>
