<?xml version="1.0" encoding="UTF-8"?>
<!DOCTYPE svg PUBLIC "-//W3C//DTD SVG 1.1//EN" "http://www.w3.org/Graphics/SVG/1.1/DTD/svg11.dtd">
<!-- Creator: CorelDRAW 2020 (64 Bit) -->
<svg xmlns="http://www.w3.org/2000/svg" xml:space="preserve" width="8.2962mm" height="11.9464mm" version="1.1" style="shape-rendering:geometricPrecision; text-rendering:geometricPrecision; image-rendering:optimizeQuality; fill-rule:evenodd; clip-rule:evenodd"
viewBox="0 0 75.16 108.22"
 xmlns:xlink="http://www.w3.org/1999/xlink"
 xmlns:xodm="http://www.corel.com/coreldraw/odm/2003">
 <defs>
  <style type="text/css">
   <![CDATA[
    .fil0 {fill:#FFB60D}
   ]]>
  </style>
 </defs>
 <g id="Camada_x0020_1">
  <metadata id="CorelCorpID_0Corel-Layer"/>
  <path class="fil0" d="M37.74 102.78c-17.48,0 -31.65,-14.17 -31.65,-31.65 0,-7.25 2.46,-13.9 6.56,-19.24 -0.21,1.48 -0.36,2.98 -0.36,4.51 0,17.48 14.17,31.65 31.65,31.65 10.24,0 19.31,-4.88 25.1,-12.41 -2.2,15.34 -15.35,27.14 -31.3,27.14zm0.08 -92.71c3.96,7.47 9.27,14.36 14.46,21.09 8.9,11.54 17.4,24.74 17.4,37.89l-9.8 6.7c0,-12.32 -2.51,-24.87 -11.36,-43.05 -3.23,-6.63 -7.84,-14.81 -11.24,-21.53 0.18,-0.37 0.38,-0.72 0.55,-1.09zm-0.25 -10.08c-7.4,26.09 -37.58,46.09 -37.58,70.65 0,20.75 16.82,37.58 37.58,37.58 20.75,0 37.58,-16.82 37.58,-37.58 0,-27.56 -29.06,-45.59 -37.58,-70.65z"/>
 </g>
</svg>
