<?xml version="1.0" encoding="UTF-8"?>
<!DOCTYPE svg PUBLIC "-//W3C//DTD SVG 1.1//EN" "http://www.w3.org/Graphics/SVG/1.1/DTD/svg11.dtd">
<!-- Creator: CorelDRAW 2020 (64 Bit) -->
<svg xmlns="http://www.w3.org/2000/svg" xml:space="preserve" width="5.9105mm" height="17.3212mm" version="1.1" style="shape-rendering:geometricPrecision; text-rendering:geometricPrecision; image-rendering:optimizeQuality; fill-rule:evenodd; clip-rule:evenodd"
viewBox="0 0 37.18 108.95"
 xmlns:xlink="http://www.w3.org/1999/xlink"
 xmlns:xodm="http://www.corel.com/coreldraw/odm/2003">
 <defs>
  <style type="text/css">
   <![CDATA[
   .fil0 {fill:#FFB60D}
   ]]>
  </style>
 </defs>
 <g id="Camada_x0020_1">
  <metadata id="CorelCorpID_0Corel-Layer"/>
  <path class="fil0" d="M26.9 15.29c0.07,0 0.14,0 0.21,0 2.48,0 4.23,-2.19 4.49,-4.3 0.22,-1.75 -0.52,-3.86 -3.21,-4.53 -0.52,-0.13 -1.03,-0.2 -1.5,-0.2 -2.77,0 -4.09,2.19 -4.14,4.23 -0.05,2.28 1.35,4.65 4.15,4.79zm-14.33 7.85c0.03,0 0.07,0 0.1,0 1.89,0 3.84,-0.94 5.1,-2.45 0.88,-1.06 1.82,-2.87 1.33,-5.5 -0.52,-2.75 -2.89,-4.66 -6.04,-4.87 -0.15,-0.01 -0.31,-0.02 -0.46,-0.02 -2.69,0 -5.72,1.68 -6.31,4.89 -0.36,1.98 0.17,4.08 1.44,5.63 1.2,1.47 2.92,2.29 4.84,2.32zm6.07 -16.93l0 0c1.53,0 3.14,-1 3.25,-2.91 0.1,-1.79 -0.8,-2.87 -2.66,-3.23 -0.27,-0.05 -0.53,-0.08 -0.79,-0.08 -1.69,0 -2.85,1.1 -2.96,2.79 -0.06,0.98 0.21,1.83 0.79,2.45 0.58,0.62 1.45,0.97 2.37,0.97zm-13.08 28.29c0.7,0 25.15,-0.03 25.75,-0.03 2.6,0 4.47,-0.19 5.18,-1.15 0.71,-0.96 0.88,-2.28 0.45,-3.64 -0.36,-1.15 -1.08,-2.05 -1.83,-2.3 -0.63,-0.21 -1.53,-0.31 -2.74,-0.31 -1.1,0 -26.32,0.21 -26.95,0.21 -1.21,0 -2.8,0.06 -4.3,0.54 -0.11,0.03 -0.19,0.1 -0.26,0.19 -0.85,1.08 -1.3,3.89 -0.23,5.31 0.63,0.83 2.05,1.18 4.94,1.18zm-1.5 62.13c0.4,3.72 2.1,6.86 4.92,9.1 2.62,2.08 6.08,3.22 9.76,3.22 0,0 0,0 0,0 0.62,0 1.24,-0.03 1.86,-0.1 3.11,-0.32 6.06,-1.67 8.31,-3.82 2.28,-2.18 3.75,-5.08 4.13,-8.17 0.34,-2.72 0,-57.86 0,-57.86 0.02,-0.32 0.06,-1.12 -0.69,-1.22 -0.03,-0 -0.05,-0 -0.08,-0l-27.68 0c-0.3,0 -0.55,0.25 -0.55,0.54l0 10.19c0,0.3 0.25,0.55 0.55,0.55 0,0 10.69,-0.12 11.26,-0.12 2.18,0 2.53,0.52 2.6,0.98 0.06,0.47 -0.07,0.69 -0.18,0.82 -0.55,0.63 -2.25,0.63 -2.81,0.63 -0.49,0 -10.86,-0.07 -10.86,-0.07 -0.3,0 -0.55,0.25 -0.55,0.55l0 4.87c0,0.3 0.25,0.55 0.55,0.55 0,0 11.69,-0.04 12.37,-0.08 0.81,-0.05 1.73,-0.11 2.61,-0.11 1.78,0 2.91,0.25 3.34,0.75 0.11,0.13 0.25,0.36 0.18,0.81 -0.1,0.7 -1.3,1.05 -3.56,1.05 -0.9,0 -14.95,-0.19 -14.95,-0.19 -0.3,0 -0.55,0.24 -0.55,0.55l0 5.09c0,0.3 0.25,0.55 0.55,0.55 0,0 10.68,-0.12 11.23,-0.12 2.27,0 2.6,0.58 2.62,1.14 0.02,0.42 -0.13,0.62 -0.23,0.73 -0.55,0.57 -2.08,0.57 -2.58,0.57 -0.54,0 -11.04,-0.1 -11.04,-0.1 -0.3,0 -0.55,0.24 -0.55,0.55l0 5.09c0,0.3 0.24,0.54 0.54,0.55 0.83,0.01 16.05,0 16.3,0 0.93,0 1.72,0 2.01,0.29 0.05,0.05 0.19,0.19 0.19,0.7 -0,0.8 -1.2,1.21 -3.56,1.21 -0.94,0 -14.94,-0.21 -14.94,-0.21 -0.15,0 -0.3,0.06 -0.4,0.18 -0.1,0.11 -0.16,0.26 -0.14,0.41 0.14,1.91 -0.21,17.97 0,19.97z"/>
 </g>
</svg>
