<?xml version="1.0" encoding="UTF-8"?>
<!DOCTYPE svg PUBLIC "-//W3C//DTD SVG 1.1//EN" "http://www.w3.org/Graphics/SVG/1.1/DTD/svg11.dtd">
<!-- Creator: CorelDRAW 2020 (64 Bit) -->
<svg xmlns="http://www.w3.org/2000/svg" xml:space="preserve" width="9.5848mm" height="19.3632mm" version="1.1" style="shape-rendering:geometricPrecision; text-rendering:geometricPrecision; image-rendering:optimizeQuality; fill-rule:evenodd; clip-rule:evenodd"
viewBox="0 0 292.8 591.52"
 xmlns:xlink="http://www.w3.org/1999/xlink"
 xmlns:xodm="http://www.corel.com/coreldraw/odm/2003">
 <defs>
  <style type="text/css">
   <![CDATA[
   .fil0 {fill:#FFB60D}
   ]]>
  </style>
 </defs>
 <g id="Camada_x0020_1">
  <metadata id="CorelCorpID_0Corel-Layer"/>
  <path class="fil0" d="M252.79 367.17l0 170.22c0,8.86 -7.24,16.1 -16.1,16.1l-180.57 0c-8.86,0 -16.1,-7.25 -16.1,-16.1l0 -170.22 212.77 0zm-151.85 -359.19c9.77,-19.39 62.16,-11.12 42.15,113.23 -5.09,31.67 -4.08,41.86 -4.53,61.63 -36.37,-14.67 -36.44,-41.27 -31.87,-72.37l-8.37 0 0 42.38 -5.38 3.75c-18.64,13 -35.97,27.66 -48.48,44.6 -11.89,16.08 -19.43,34.43 -19.43,55.67l0 296.44c0,2.6 1.9,5.81 4.64,8.55 2.72,2.75 5.92,4.64 8.55,4.64l216.36 0c2.62,0 5.83,-1.89 8.57,-4.62 2.72,-2.76 4.62,-5.97 4.62,-8.57l0 -296.44c0,-21.23 -7.54,-39.58 -19.43,-55.67 -12.52,-16.94 -29.85,-31.6 -48.48,-44.6l-5.38 -3.75 0 -42.38 -3.81 0c-1.03,10.36 -2.76,21.83 -5.33,34.55 -7.28,35.97 0.07,56.75 -0.44,79.37 -78.64,-43.58 -8.79,-131.92 -33.91,-206.37 13.96,0.51 36.08,11.21 40.19,54.89l32.21 0c10.37,0 18.78,8.41 18.78,18.78 0,10.37 -8.41,18.78 -18.78,18.78l-3.88 0 0 29.52c18.58,13.46 35.82,28.68 48.87,46.35 14.94,20.22 24.41,43.43 24.41,70.53l0 296.44c0,9.51 -4.9,19.17 -11.98,26.25l-0.05 0c-7.08,7.08 -16.72,11.98 -26.2,11.98l-216.36 0c-9.48,0 -19.12,-4.9 -26.2,-11.98l-0.05 0c-7.08,-7.08 -11.98,-16.74 -11.98,-26.25l0 -296.44c0,-27.1 9.48,-50.32 24.41,-70.53 13.06,-17.68 30.29,-32.89 48.87,-46.35l0 -29.52 -3.88 0c-10.37,0 -18.78,-8.41 -18.78,-18.78 0,-10.37 8.41,-18.78 18.78,-18.78l42.83 0c2.23,-21.63 1.32,-43.94 -11.29,-64.93zm124.73 500.23c9.2,0 16.66,7.47 16.66,16.67 0,9.2 -7.46,16.66 -16.66,16.66 -9.21,0 -16.67,-7.46 -16.67,-16.66 0,-9.2 7.46,-16.67 16.67,-16.67zm-37.7 -24.62c2.83,0 5.13,2.29 5.13,5.13 0,2.83 -2.29,5.13 -5.13,5.13 -2.83,0 -5.14,-2.29 -5.14,-5.13 0,-2.83 2.3,-5.13 5.14,-5.13zm-34.89 5.64c5.38,0 9.75,4.37 9.75,9.75 0,5.39 -4.37,9.75 -9.75,9.75 -5.38,0 -9.74,-4.36 -9.74,-9.75 0,-5.38 4.36,-9.75 9.74,-9.75zm1.28 -35.9c3.82,0 6.93,3.1 6.93,6.92 0,3.83 -3.1,6.93 -6.93,6.93 -3.83,0 -6.92,-3.1 -6.92,-6.93 0,-3.82 3.09,-6.92 6.92,-6.92zm-45.65 -23.08c6.94,0 12.57,5.63 12.57,12.56 0,6.94 -5.63,12.57 -12.57,12.57 -6.94,0 -12.56,-5.62 -12.56,-12.57 0,-6.93 5.62,-12.56 12.56,-12.56zm-7.69 -31.8c6.38,0 11.54,5.17 11.54,11.54 0,6.37 -5.16,11.54 -11.54,11.54 -6.37,0 -11.54,-5.17 -11.54,-11.54 0,-6.38 5.17,-11.54 11.54,-11.54z"/>
 </g>
</svg>
