<?xml version="1.0" encoding="UTF-8"?>
<!DOCTYPE svg PUBLIC "-//W3C//DTD SVG 1.1//EN" "http://www.w3.org/Graphics/SVG/1.1/DTD/svg11.dtd">
<!-- Creator: CorelDRAW 2020 (64 Bit) -->
<svg xmlns="http://www.w3.org/2000/svg" xml:space="preserve" width="62.7974mm" height="36.7893mm" version="1.1" style="shape-rendering:geometricPrecision; text-rendering:geometricPrecision; image-rendering:optimizeQuality; fill-rule:evenodd; clip-rule:evenodd"
viewBox="0 0 451.34 264.41"
 xmlns:xlink="http://www.w3.org/1999/xlink"
 xmlns:xodm="http://www.corel.com/coreldraw/odm/2003">
 <defs>
  <style type="text/css">
   <![CDATA[
    .fil0 {fill:#FFB60D}
   ]]>
  </style>
 </defs>
 <g id="Camada_x0020_1">
  <metadata id="CorelCorpID_0Corel-Layer"/>
  <path class="fil0" d="M363.37 70.2l-6.77 22.16c6.05,1.93 10.47,7.87 10.47,14.91 0,3.52 -1.12,6.76 -2.99,9.37l17.65 14.42c4.86,-6.56 7.76,-14.82 7.76,-23.8 0,-17.58 -11.07,-32.31 -26.11,-37.06zm-14.67 53.58c-8.04,-0.07 -14.52,-7.05 -14.52,-15.55 0,-8.5 6.48,-15.46 14.52,-15.53 1.52,-0.01 2.97,0.22 4.34,0.66l6.74 -22.11c-3.51,-1.11 -7.23,-1.67 -11.08,-1.59 -19.84,0.4 -35.66,17.69 -35.66,38.56 0,20.87 15.82,38.18 35.66,38.61 11.86,0.25 22.52,-5.57 29.36,-14.82l-17.58 -14.4c-2.7,3.78 -6.97,6.21 -11.78,6.17zm95.51 -64.16l-30.36 129.49 -108.84 15.92 0 -0.05 -24.18 -8.85c-0.02,-2.3 -0.05,-4.57 -0.06,-6.82l24.63 8.84 101.75 -13.67 29.63 -125.12 7.43 0.25zm-163.55 116.1l13.22 4.42 -13.17 1.97c-0.03,-2.2 -0.04,-4.34 -0.05,-6.39zm-0.06 -14.16c0,-3.42 -0.49,-6.5 -1.23,-9.41l0.43 -0.07 95.82 27.37 -43.76 6.2 -51.24 -16.69c-0.01,-2.77 -0.02,-5.31 -0.02,-7.39zm22.87 -107.92l120.81 8.08 -26.43 111.64 -113.2 -32.03 18.82 -87.68zm-5.8 -9.36l-20.9 100.17 -0.01 -0.01 -0.41 0.06c-5.05,-8.58 -14.46,-13.45 -27.59,-13.45l-5.74 0c-7.7,7.51 -21.16,12.54 -36.59,12.54 -15.43,0 -28.89,-5.02 -36.59,-12.54l-5.75 0c-20.24,0 -31.84,11.44 -31.84,30.51 0,19.07 -0.61,71.23 -0.61,81.62 0,10.4 -1.24,21.22 7.72,21.22 3.31,0 13.86,0 27.54,0 13.04,0 25.58,0 37.07,0 1.59,0 3.36,0 4.9,0 14.74,0 26.99,0 34.02,0 1.25,0 2.13,0 3.05,0 0.4,0 0.99,0 1.31,0 11.45,0 20.25,0 23.19,0 1.21,0 2.37,0 3.04,0 8.98,0 7.73,-10.82 7.73,-21.22l-0.04 -7.61 -0.14 -16.56c-0.05,-4.67 -0.1,-9.66 -0.14,-14.75l23.34 8.93 115.52 -18.37 11.57 -47.99 20.01 -95.52 -153.67 -7.03zm-136.22 27.76c0.11,-1.1 0.31,-2.17 0.52,-3.24 23.38,0.04 66.06,0.12 89.64,0.01 0.72,4.21 0.92,8.57 0.42,13.02 -2.78,25.68 -25.36,44.38 -50.32,41.68 -24.99,-2.7 -43.02,-25.78 -40.26,-51.47zm-10.12 -2.19c-5.27,3.18 -7.15,-15.33 -0.41,-15.51 3.92,-64.7 99.9,-79.41 111.52,-1.12 6.75,0.18 4.86,18.69 -0.41,15.51 0.65,4.61 0.79,9.36 0.29,14.2 -3.39,31.35 -31.08,54.16 -61.73,50.85 -30.62,-3.31 -52.8,-31.51 -49.43,-62.86 0.04,-0.36 0.1,-0.72 0.16,-1.08zm-47.83 -52.41c6.67,0.93 11.62,6.66 11.62,13.39l0 8.92c0,66.58 -40.48,84.54 -53.55,88.61 -2.62,0.81 -5.41,0.81 -8.03,0 -13.07,-4.06 -53.55,-22.02 -53.55,-88.61l0 -8.87c0,-6.75 4.96,-12.51 11.65,-13.4 17.62,-2.33 30.6,-9.54 38.17,-14.95 4.67,-3.34 10.93,-3.4 15.64,-0.11 7.74,5.39 20.87,12.63 38.04,15.02zm-55.81 73.98c-1.84,0 -3.62,-0.73 -4.93,-2.04l-13.61 -13.61c-2.73,-2.73 -2.73,-7.14 0,-9.87 2.72,-2.72 7.14,-2.72 9.87,0l8 8 28.5 -36.94c2.35,-3.05 6.74,-3.62 9.79,-1.26 3.05,2.35 3.62,6.74 1.26,9.79l-33.35 43.22c-1.23,1.59 -3.08,2.57 -5.08,2.7 -0.15,0.01 -0.3,0.02 -0.45,0.02z"/>
 </g>
</svg>
