<?xml version="1.0" encoding="UTF-8"?>
<!DOCTYPE svg PUBLIC "-//W3C//DTD SVG 1.1//EN" "http://www.w3.org/Graphics/SVG/1.1/DTD/svg11.dtd">
<!-- Creator: CorelDRAW 2020 (64 Bit) -->
<svg xmlns="http://www.w3.org/2000/svg" xml:space="preserve" width="14.5178mm" height="19.9811mm" version="1.1" style="shape-rendering:geometricPrecision; text-rendering:geometricPrecision; image-rendering:optimizeQuality; fill-rule:evenodd; clip-rule:evenodd"
viewBox="0 0 797.08 1097.03"
 xmlns:xlink="http://www.w3.org/1999/xlink"
 xmlns:xodm="http://www.corel.com/coreldraw/odm/2003">
 <defs>
  <style type="text/css">
   <![CDATA[
   .fil0 {fill:#FFB60D}
   ]]>
  </style>
 </defs>
 <g id="Camada_x0020_1">
  <metadata id="CorelCorpID_0Corel-Layer"/>
  <path class="fil0" d="M650.49 1001.32c-25.92,-24.37 -57.33,-40.78 -91.49,-47.02 -2.68,-0.49 -5.4,-0.93 -8.09,-1.3 -35.1,-4.76 -70.05,1.45 -102.86,17.08 -4.77,-4.48 -9.42,-9.16 -13.8,-14.18 35.35,-19.07 73.67,-26.39 112.03,-21.18 2.68,0.36 5.41,0.8 8.1,1.29 40.43,7.4 77.14,28.88 105.29,61.21 -2.99,1.6 -6.13,2.66 -9.18,4.1zm-142.59 -137.22c-27.59,-26.17 -61.16,-43.63 -97.57,-50.04 -2.44,-0.42 -4.86,-0.81 -7.27,-1.14 -37.04,-5.02 -75.16,1.73 -110.09,18.84 -4.64,-4.4 -9.14,-8.98 -13.42,-13.88 37.26,-20.44 78.73,-28.68 118.87,-23.24 2.43,0.33 4.84,0.72 7.29,1.14 42.54,7.5 81.26,29.94 110.99,63.91 -2.89,1.59 -5.86,2.97 -8.78,4.41zm-198.77 -275.99c-17.77,-26.03 -41.32,-46.67 -69.44,-59.22 -14.2,-6.32 -29.2,-10.59 -44.6,-12.68 -19.42,-2.64 -39.61,-1.59 -59.58,2.66 -3.77,-5.55 -7.64,-11.01 -10.84,-17.06 21.97,-5.44 44.36,-6.79 65.78,-3.88 15.41,2.09 30.41,6.32 44.6,12.67 34.1,15.22 62.02,41.89 80.27,76.27 -2.05,0.54 -4.14,0.82 -6.19,1.25zm-222.64 -482.64c-15.76,-17.09 -36.24,-28.7 -59.65,-33.98 0.14,1.07 0.5,2.06 0.69,3.14 -2.33,-6.92 -4.27,-14.02 -5.34,-21.42 23.42,5.26 43.9,16.89 59.66,33.98 14.98,16.23 24.57,36.69 28.37,59.1 -5.08,-15.21 -12.95,-29.15 -23.73,-40.83zm78.66 -73.06c11.59,20.92 16.66,44.11 14.45,67.14 -0.67,6.96 -2.22,13.76 -4.18,20.45 -1.44,-16.08 -6.17,-31.9 -14.28,-46.57 -10.72,12.75 -18.35,27.28 -22.86,42.68 -0.6,-6.83 -0.8,-13.69 -0.14,-20.56 2.25,-23.01 11.65,-44.81 27.02,-63.13zm223.42 686.68c-25.32,-23.64 -55.91,-39.57 -89.11,-45.67 -2.72,-0.52 -5.45,-0.96 -8.15,-1.32 -34.15,-4.63 -68.2,1.35 -100.14,16.39 -4.81,-4.48 -9.49,-9.14 -13.88,-14.18 34.55,-18.5 71.97,-25.56 109.38,-20.49 2.72,0.37 5.43,0.81 8.14,1.32 39.53,7.26 75.42,28.28 103.01,59.86 -3.03,1.61 -6.19,2.65 -9.25,4.1zm-162.49 -283.81c-11.73,-23.36 -28.65,-43.15 -50.08,-57.29 -18.27,-12.05 -38.72,-19.68 -60.74,-22.68 -9.26,-1.25 -18.65,-1.54 -28.15,-1.11 -2.96,-5.9 -5.84,-11.88 -8.09,-18.23 10.66,-0.7 21.23,-0.34 31.6,1.07 22.02,2.99 42.48,10.61 60.75,22.67 26.83,17.7 47,44.04 58.2,75.52 -1.16,0.09 -2.31,0.01 -3.49,0.05zm-62.4 -140.33c-8.66,-20.3 -21.74,-38.03 -38.71,-51.6 -18.74,-15 -40.66,-24.29 -65.13,-27.61 -3.71,-0.51 -7.42,-0.79 -11.19,-0.99 -2.54,-5.96 -4.81,-12.08 -6.55,-18.45 4.41,0.19 8.78,0.57 13.11,1.15 24.47,3.32 46.39,12.62 65.13,27.63 21.94,17.56 37.58,41.92 45.27,70.06 -0.66,-0.03 -1.3,-0.15 -1.92,-0.19zm62.44 -151.09c15.77,24.54 23.42,52.43 21.79,80.48 -0.51,8.67 -2.18,17.14 -4.4,25.49 -1.43,-22.72 -8.56,-44.98 -21.43,-64.97 -12.78,15.55 -21.6,33.25 -26.56,51.91 -0.33,-5.17 -0.68,-10.32 -0.37,-15.51 1.64,-28.04 12.49,-54.88 30.98,-77.4zm92.2 109.36c15.42,29.66 20.96,62.36 15.62,94.06 -0.59,3.5 -1.78,6.84 -2.62,10.27 -1.07,-21.65 -6.57,-43.2 -17.02,-63.31 -21.6,20.42 -36.11,45.85 -42.91,73.44 -0.49,-10.25 -0.31,-20.52 1.41,-30.69 5.31,-31.7 21.25,-60.77 45.53,-83.76zm41.22 222.08c5.2,-36.98 23.11,-71.17 51.14,-98.21 19.43,33.71 27.24,71.54 22.02,108.51 -0.65,4.64 -1.5,9.24 -2.54,13.79 -0.82,-28.02 -8.84,-55.83 -23.54,-81.32 -24.49,23.64 -41.27,52.78 -48.57,84.43 -0.27,-9.06 0.21,-18.15 1.48,-27.2zm99.33 121.3c7.85,-39.4 29.32,-74.97 61.27,-102.11 19.14,37.28 25.39,78.38 17.55,117.77 -0.25,1.3 -0.64,2.55 -0.93,3.83 -0.58,-27.46 -7.47,-54.94 -20.64,-80.59 -30.91,26.22 -51.9,60.4 -60.33,98.26 -0.26,-12.44 0.67,-24.88 3.09,-37.16zm109.93 156.31c0.53,-43.21 16.41,-85.05 45.12,-119.84 27.89,35.48 42.72,77.71 42.2,120.91 -0.15,12.21 -1.66,24.29 -4.19,36.14 -0.59,-41.5 -15.2,-81.9 -42.06,-116.07 -20.59,24.96 -34.46,53.59 -40.9,83.73 -0.02,-1.64 -0.18,-3.24 -0.16,-4.87zm136.71 70.73c16.58,22.94 25.5,49.56 25.5,76.86 0.01,11.1 -1.84,21.99 -4.71,32.66 -1.62,-24.34 -9.97,-47.95 -24.82,-68.53 -9.84,13.62 -16.63,28.6 -20.8,44.2 -0.2,-2.79 -0.69,-5.53 -0.69,-8.33 0.01,-27.29 8.95,-53.93 25.51,-76.86zm91.5 240.14c-27.03,-21.85 -53.6,-44.4 -79.68,-67.66 21.7,-27.03 34.57,-59.98 34.56,-95.65 0.01,-41.74 -17.51,-79.84 -46.38,-108.99 -28.85,29.13 -46.39,67.27 -46.39,109.01 -0.01,17.58 3.27,34.47 9.02,50.37 -17.65,-16.81 -35.1,-33.92 -52.27,-51.39 37.44,-39.34 60.47,-89.79 61.12,-145.25 0.7,-58.08 -23.03,-111.41 -62.69,-152.45 -40.66,40.05 -65.66,92.79 -66.37,150.88 -0.44,36.96 9.07,71.94 26.19,103.1 -34.09,-36.71 -67.21,-74.69 -98.99,-114.17 42.15,-30.13 72.7,-73.36 83.01,-125.26 10.73,-53.89 -2.12,-107.61 -31.91,-152.64 -44.73,30.23 -77.13,74.93 -87.86,128.83 -8.24,41.47 -2.42,82.78 14.22,120.18 -25.15,-32.35 -49.47,-65.59 -72.96,-99.71 39.32,-30.86 66.65,-74.02 73.72,-124.49 7.26,-51.53 -7.76,-101.64 -38.33,-142.63 -40.68,30.98 -68.94,74.99 -76.18,126.52 -5.01,35.67 0.83,70.55 14.91,102.31 -9.36,-14.23 -18.69,-28.49 -27.75,-43.02 -14.48,-23.2 -28.3,-46.65 -41.79,-70.16 36.64,-26.77 62.64,-65.21 70.3,-110.81 7.74,-46.05 -4.49,-91.35 -30.91,-128.86 -37.26,26.81 -63.67,65.61 -71.42,111.65 -4.91,29.19 -1.74,58.04 7.94,84.82 -15.37,-28.3 -30.11,-56.8 -44.07,-85.53 30.51,-27.85 50.22,-65.22 52.67,-107.22 2.46,-42.51 -13.12,-82.36 -40.76,-113.74 -31.1,27.97 -51.2,65.74 -53.68,108.23 -0.44,7.81 -0.09,15.49 0.63,23.06 -7.38,-17.17 -14.54,-34.4 -21.47,-51.69 26.06,-23.26 43.48,-54.37 46.92,-89.89 3.62,-37.33 -8.78,-72.95 -32.07,-101.54 -28.36,23.6 -47.31,56.19 -50.92,93.53 -0.26,2.65 -0.26,5.27 -0.36,7.9 -5.31,-10.12 -11.8,-19.7 -19.81,-28.39 -25.44,-27.59 -60.26,-42.09 -97.1,-43.75 -1.29,36.85 10.36,72.69 35.8,100.29 25.15,27.24 59.41,41.65 95.75,43.62 6.46,17.83 13.15,35.57 20.14,53.28 -5.59,-6.3 -11.63,-12.3 -18.39,-17.72 -33.24,-26.59 -74.76,-36.92 -116.34,-32.51 4.8,41.54 23.99,79.77 57.24,106.36 32.76,26.22 73.57,36.56 114.56,32.64 8,17.9 16.26,35.75 24.79,53.53 -9.03,-9.89 -19.22,-18.9 -30.8,-26.51 -38.99,-25.71 -85.36,-32.82 -130.35,-23.8 9.46,44.89 34.24,84.73 73.25,110.44 39,25.71 85.36,32.79 130.35,23.8 -0.07,-0.37 -0.18,-0.72 -0.27,-1.12 14.37,26.89 29.23,53.63 44.87,80.13 -16.1,-16.57 -35.14,-30.39 -57.13,-40.18 -47.53,-21.23 -99.84,-20.63 -147.67,-2.59 18.54,47.68 53.01,86.97 100.56,108.19 47.13,21.04 98.96,20.56 146.48,2.93 20.35,31.77 41.35,62.87 63.07,93.19 -28.74,-29.85 -65.34,-50.92 -107.4,-58.67 -54.05,-9.96 -107.56,3.62 -152.17,34.03 30.83,44.32 75.99,76.1 130.03,86.06 53.32,9.82 106.12,-3.38 150.38,-32.95 24.2,32.63 49.2,64.38 74.94,95.26 -26.61,-20.95 -57.81,-35.65 -92.5,-41.77 -57.2,-10.09 -113.67,4.71 -160.58,37.21 32.99,46.61 80.96,79.81 138.18,89.9 56.09,9.88 111.41,-4.26 157.78,-35.45 18.76,21.15 37.81,41.96 57.29,62.22 -13.85,-6.09 -28.43,-10.79 -43.81,-13.62 -54.99,-10.07 -109.38,3.81 -154.73,34.78 31.44,45.02 77.38,77.3 132.37,87.37 51.6,9.43 102.61,-2.42 146.18,-29.52 32.76,30.67 66.34,60.19 100.71,88.53l0.01 0c0,0 15.49,6.3 14.32,-32.89z"/>
 </g>
</svg>
