<?xml version="1.0" encoding="UTF-8"?>
<!DOCTYPE svg PUBLIC "-//W3C//DTD SVG 1.1//EN" "http://www.w3.org/Graphics/SVG/1.1/DTD/svg11.dtd">
<!-- Creator: CorelDRAW 2020 (64 Bit) -->
<svg xmlns="http://www.w3.org/2000/svg" xml:space="preserve" width="10.6436mm" height="13.6009mm" version="1.1" style="shape-rendering:geometricPrecision; text-rendering:geometricPrecision; image-rendering:optimizeQuality; fill-rule:evenodd; clip-rule:evenodd"
viewBox="0 0 126.96 162.23"
 xmlns:xlink="http://www.w3.org/1999/xlink"
 xmlns:xodm="http://www.corel.com/coreldraw/odm/2003">
 <defs>
  <style type="text/css">
   <![CDATA[
   .fil0 {fill:#FFB60D}
   ]]>
  </style>
 </defs>
 <g id="Camada_x0020_1">
  <metadata id="CorelCorpID_0Corel-Layer"/>
  <g id="quality.eps">
   <path class="fil0" d="M54.27 126.73c-6.32,5.84 -15.07,7.15 -22.83,3.42 -2.81,-1.35 -5.17,-3.22 -7.02,-5.45l-10.56 23.37c-0.48,1.06 0.06,1.86 0.31,2.16 0.25,0.29 0.96,0.95 2.09,0.63l7.69 -2.14c0.88,-0.24 1.76,-0.36 2.64,-0.36 3.69,0 7.15,2.09 8.82,5.54l3.47 7.19c0.49,1.02 1.4,1.15 1.82,1.15l0.04 0c0.39,-0.01 1.34,-0.13 1.82,-1.2l16.8 -37.17c-1.85,0.53 -3.6,1.48 -5.08,2.86z"/>
   <path class="fil0" d="M72.69 126.73c6.33,5.84 15.07,7.15 22.83,3.42 2.8,-1.35 5.17,-3.22 7.02,-5.45l10.56 23.37c0.48,1.06 -0.06,1.86 -0.31,2.16 -0.25,0.29 -0.96,0.95 -2.09,0.63l-7.69 -2.14c-0.88,-0.24 -1.76,-0.36 -2.64,-0.36 -3.69,0 -7.15,2.09 -8.82,5.54l-3.47 7.19c-0.49,1.02 -1.4,1.15 -1.82,1.15l-0.04 0c-0.39,-0.01 -1.34,-0.13 -1.83,-1.2l-16.8 -37.17c1.85,0.53 3.6,1.48 5.08,2.86z"/>
   <path class="fil0" d="M63.48 106.44c-23,0 -41.71,-18.71 -41.71,-41.7 0,-23 18.71,-41.71 41.71,-41.71 23,0 41.71,18.71 41.71,41.71 -0,23 -18.71,41.7 -41.71,41.7zm57.93 -40.6c-8.77,-6.01 -11.5,-17.94 -6.2,-27.16 3.18,-5.54 1.53,-11.02 -1.09,-14.3 -2.61,-3.28 -7.59,-6.11 -13.7,-4.24 -10.17,3.11 -21.19,-2.19 -25.1,-12.09 -2.35,-5.95 -7.66,-8.06 -11.85,-8.06 -4.19,0 -9.51,2.12 -11.85,8.06 -3.9,9.89 -14.93,15.2 -25.1,12.09 -6.11,-1.87 -11.08,0.96 -13.7,4.24 -2.61,3.28 -4.27,8.75 -1.09,14.3 5.3,9.22 2.58,21.15 -6.2,27.16 -5.27,3.61 -6.16,9.26 -5.22,13.35 0.93,4.09 4.18,8.8 10.5,9.76 10.51,1.61 18.14,11.17 17.37,21.78 -0.47,6.38 3.4,10.59 7.18,12.41 3.78,1.82 9.48,2.22 14.18,-2.12 3.9,-3.61 8.92,-5.41 13.93,-5.41 5.01,0 10.02,1.8 13.93,5.41 4.7,4.34 10.4,3.94 14.18,2.12 3.78,-1.82 7.65,-6.03 7.18,-12.41 -0.77,-10.61 6.86,-20.17 17.37,-21.78 6.32,-0.96 9.57,-5.68 10.5,-9.76 0.93,-4.09 0.05,-9.74 -5.22,-13.35z"/>
   <path class="fil0" d="M48.91 61.55c1.76,-1.23 4.18,-0.81 5.42,0.95l4.04 5.75 17.92 -13.09c1.73,-1.27 4.17,-0.89 5.43,0.85 1.27,1.73 0.89,4.17 -0.85,5.43l-21.12 15.42c-0.67,0.49 -1.47,0.75 -2.29,0.75 -0.21,0 -0.42,-0.02 -0.63,-0.05 -1.03,-0.17 -1.95,-0.75 -2.55,-1.6l-6.32 -8.99c-1.23,-1.76 -0.81,-4.18 0.95,-5.42zm48.5 3.18c0,-18.71 -15.22,-33.93 -33.93,-33.93 -18.71,0 -33.93,15.22 -33.93,33.93 0,18.71 15.22,33.93 33.93,33.93 18.71,0 33.93,-15.22 33.93,-33.93z"/>
  </g>
 </g>
</svg>
