<?xml version="1.0" encoding="UTF-8"?>
<!DOCTYPE svg PUBLIC "-//W3C//DTD SVG 1.1//EN" "http://www.w3.org/Graphics/SVG/1.1/DTD/svg11.dtd">
<!-- Creator: CorelDRAW 2020 (64 Bit) -->
<svg xmlns="http://www.w3.org/2000/svg" xml:space="preserve" width="13.4905mm" height="16.5769mm" version="1.1" style="shape-rendering:geometricPrecision; text-rendering:geometricPrecision; image-rendering:optimizeQuality; fill-rule:evenodd; clip-rule:evenodd"
viewBox="0 0 662.52 814.1"
 xmlns:xlink="http://www.w3.org/1999/xlink"
 xmlns:xodm="http://www.corel.com/coreldraw/odm/2003">
 <defs>
  <style type="text/css">
   <![CDATA[
   .fil0 {fill:#FFB60D}
   ]]>
  </style>
 </defs>
 <g id="Camada_x0020_1">
  <metadata id="CorelCorpID_0Corel-Layer"/>
  <path class="fil0" d="M59.6 642.45c-11.73,41.38 -59.6,73.11 -59.6,112.05 0,32.91 26.69,59.6 59.6,59.6 32.92,0 59.61,-26.69 59.61,-59.6 0,-43.71 -46.09,-72.32 -59.61,-112.05zm341.17 -542.19l7.34 7.34 77.32 -77.32c40.37,-40.37 106.43,-40.37 146.8,0l0 0c40.37,40.37 40.37,106.43 0,146.8l-77.32 77.32 7.34 7.34c12.92,12.92 12.92,34.05 0,46.97l-29.36 29.36c-12.92,12.92 -34.06,12.92 -46.98,0l-19.56 -19.56 -245.65 245.65c-16.81,16.81 -38.98,25.21 -61.15,25.22l-0.05 0c-7.1,-0 -14.2,-0.87 -21.13,-2.59l-26.52 26.52c-8.62,8.62 -19.99,12.93 -31.33,12.93 -11.37,-0.03 -22.73,-4.33 -31.33,-12.93 -8.59,-8.59 -12.89,-19.94 -12.9,-31.3l0 -0.06c0.01,-11.36 4.31,-22.71 12.9,-31.3l26.52 -26.52c-1.72,-6.92 -2.59,-14.03 -2.59,-21.13l0 -0.05c0,-22.17 8.41,-44.34 25.22,-61.15l245.65 -245.65 -19.57 -19.57c-12.92,-12.92 -12.92,-34.05 0,-46.97l29.36 -29.36c12.92,-12.92 34.06,-12.92 46.98,0zm50.88 203.56l-92.96 -92.96 -245.65 245.65c-12.78,12.78 -19.18,29.64 -19.2,46.48 0,0.99 0.02,1.97 0.07,2.95 0.36,8.14 2.23,16.24 5.59,23.81l-15.48 15.48 -20.14 20.14c-4.59,4.59 -6.89,10.61 -6.88,16.59l0 0.06c-0,5.99 2.29,12.01 6.88,16.59 4.59,4.59 10.6,6.89 16.59,6.88 6.05,-0.03 12.09,-2.31 16.65,-6.88l20.14 -20.14 15.48 -15.48c7.58,3.36 15.67,5.23 23.81,5.59 0.98,0.05 1.96,0.07 2.95,0.07 16.84,-0.01 33.69,-6.41 46.48,-19.2l245.65 -245.65zm-232.78 70.34l-89.69 89.69c-19.11,19.11 -19.11,50.38 0,69.49l0 0c19.11,19.11 50.38,19.11 69.49,0l159.17 -159.18 -138.97 -0zm393.9 -324.41c3.38,3.39 3.38,8.87 0,12.26 -3.38,3.38 -8.87,3.38 -12.25,0 -12.71,-12.71 -29.48,-19.07 -46.24,-19.07 -16.76,0 -33.52,6.35 -46.23,19.06l-60.4 60.4c-3.38,3.38 -8.87,3.38 -12.25,0 -3.38,-3.38 -3.38,-8.87 0,-12.25l60.4 -60.4c16.08,-16.09 37.29,-24.13 58.48,-24.13 21.19,0 42.4,8.04 58.49,24.13z"/>
 </g>
</svg>
