<?xml version="1.0" encoding="utf-8"?>
<!-- Generator: Adobe Illustrator 24.3.0, SVG Export Plug-In . SVG Version: 6.00 Build 0)  -->
<svg version="1.1" id="Layer_1" xmlns="http://www.w3.org/2000/svg" xmlns:xlink="http://www.w3.org/1999/xlink" x="0px" y="0px"
	 viewBox="0 0 200 200" enable-background="new 0 0 200 200" xml:space="preserve">
<path fill="#282828" d="M118.482,143.698c-0.4,0-0.8-0.1-1.2-0.4l-23.1-16.6c-27-1.9-47.3-17.1-47.3-35.4
	c0-19.6,23.9-35.6,53.4-35.6c29.4,0,53.501,16,53.501,35.6c0,14.6-12.8,27.3-32.8,32.8v17.6c0,0.8-0.6,1.4-1.3,1.8
	C119.382,143.598,118.782,143.698,118.482,143.698z M100.282,59.698c-27.3,0-49.4,14.2-49.4,31.6c0,16.3,19,29.8,44.2,31.4
	c0.4,0,1,0.2,1.3,0.4l20.6,14.7v-15.3c0-0.9,0.4-1.7,1.3-1.9c19.101-4.7,31.4-16.2,31.4-29.3
	C149.583,73.898,127.383,59.698,100.282,59.698z"/>
</svg>
